<?xml version="1.0" standalone="no"?>
<!DOCTYPE svg PUBLIC "-//W3C//DTD SVG 20010904//EN"
 "http://www.w3.org/TR/2001/REC-SVG-20010904/DTD/svg10.dtd">
<svg version="1.0" xmlns="http://www.w3.org/2000/svg"
 width="700.000000pt" height="700.000000pt" viewBox="0 0 700.000000 700.000000"
 preserveAspectRatio="xMidYMid meet">
<metadata>
Created by potrace 1.14, written by Peter Selinger 2001-2017
</metadata>
<g transform="translate(0.000000,700.000000) scale(0.100000,-0.100000)"
fill="#000000" stroke="none">
<path d="M1685 6408 c-92 -16 -190 -111 -215 -208 -8 -33 -12 -746 -12 -2708
0 -2556 1 -2665 19 -2714 25 -72 94 -143 165 -172 l57 -22 933 1 933 1 53 23
c69 31 137 106 157 174 13 45 15 369 15 2724 0 2590 -1 2674 -19 2722 -24 65
-90 133 -154 162 l-52 24 -915 0 c-503 1 -938 -3 -965 -7z m1810 -2908 l0
-2625 -872 0 -873 -1 0 2622 c0 1441 2 2623 4 2625 2 2 395 4 873 4 l868 0 0
-2625z"/>
<path d="M2590 5832 c-240 -18 -436 -169 -517 -397 l-28 -80 -2 -1028 c-1
-843 1 -1039 13 -1095 41 -198 207 -378 404 -437 203 -60 424 -2 575 149 80
81 127 162 155 268 18 69 19 124 19 1083 1 870 -1 1019 -15 1075 -31 133 -100
247 -200 330 -49 41 -163 101 -219 115 -44 11 -145 20 -185 17z m134 -309 c67
-24 138 -90 166 -155 21 -48 24 -69 25 -226 1 -95 -2 -175 -7 -178 -7 -4 -313
-7 -519 -5 l-56 1 2 178 c1 161 4 182 25 230 59 136 222 205 364 155z m192
-1220 l0 -363 -35 -1 c-44 -1 -486 -1 -521 0 l-26 1 0 358 c-1 196 3 360 8
363 4 3 135 5 291 5 l283 0 0 -363z m-2 -672 c2 -9 3 -90 1 -181 -3 -192 -14
-229 -89 -304 -157 -154 -425 -80 -481 134 -9 35 -15 362 -6 366 0 0 129 0
286 0 249 0 285 -2 289 -15z"/>
<path d="M2525 2450 c-153 -77 -157 -290 -7 -377 38 -23 58 -27 112 -27 71 0
104 15 154 68 108 116 54 313 -98 355 -57 16 -102 11 -161 -19z"/>
<path d="M2528 1733 c-113 -43 -189 -149 -190 -265 -1 -73 3 -91 30 -145 29
-56 79 -102 142 -130 47 -22 66 -25 131 -21 117 7 198 62 247 168 65 139 6
307 -131 377 -66 33 -164 40 -229 16z"/>
<path d="M4538 6125 c-2 -2 -21 -5 -43 -8 -67 -9 -109 -25 -174 -67 -179 -116
-262 -310 -228 -533 28 -178 172 -342 346 -393 150 -44 295 -13 430 90 110 84
118 205 18 266 -56 35 -130 24 -183 -26 -132 -123 -323 -30 -326 161 -3 107
76 203 171 213 61 5 98 -8 164 -60 41 -32 57 -38 95 -38 53 0 102 25 128 65
22 34 25 102 6 139 -36 73 -179 165 -282 182 -47 7 -118 13 -122 9z"/>
<path d="M4250 4948 c-80 -30 -114 -125 -73 -204 29 -56 76 -77 181 -78 l87
-1 3 -305 c1 -186 6 -315 13 -331 32 -81 138 -115 209 -67 68 46 70 57 70 399
l0 305 78 1 c104 0 133 8 171 47 59 61 52 162 -17 214 l-35 27 -331 1 c-187 1
-342 -2 -356 -8z"/>
<path d="M4378 3345 c-81 -16 -142 -51 -197 -111 -66 -72 -94 -145 -94 -244 0
-109 29 -178 107 -256 85 -85 140 -104 305 -109 121 -3 126 -4 148 -30 27 -31
23 -69 -9 -97 -16 -15 -39 -18 -117 -18 -104 1 -118 6 -144 57 -48 92 -161
114 -235 45 -63 -59 -58 -148 13 -245 43 -58 100 -100 173 -127 47 -18 78 -21
191 -21 150 1 206 14 277 62 188 128 216 394 57 554 -44 46 -112 86 -168 100
-16 4 -81 9 -143 11 -124 3 -156 14 -164 57 -13 68 26 91 151 89 99 -1 123
-11 137 -54 34 -109 207 -118 261 -15 57 110 -57 289 -218 342 -59 20 -254 26
-331 10z"/>
<path d="M5325 3261 c-33 -20 -173 -163 -200 -205 -10 -15 -18 -46 -18 -69 0
-75 43 -130 113 -144 l30 -5 0 -230 c0 -191 3 -236 16 -264 25 -52 68 -78 130
-79 62 0 100 23 127 78 17 33 18 69 18 424 0 213 -2 396 -4 405 -6 32 -48 79
-83 94 -46 19 -93 18 -129 -5z"/>
<path d="M4415 2038 c-81 -10 -136 -32 -193 -78 -109 -86 -159 -229 -127 -365
21 -90 61 -151 140 -211 77 -59 136 -72 331 -74 65 0 97 -23 97 -69 0 -58 -26
-72 -134 -73 -52 0 -100 0 -107 1 -7 1 -28 26 -47 56 -39 61 -76 85 -130 85
-82 0 -146 -61 -147 -140 -1 -95 106 -227 220 -270 45 -17 82 -22 177 -24 66
-1 140 1 165 6 113 21 211 99 264 208 27 57 31 75 31 151 -1 76 -4 92 -33 150
-78 155 -176 209 -391 214 -109 2 -116 4 -137 28 -26 30 -22 72 9 100 16 14
39 17 119 17 92 0 101 -2 123 -25 14 -13 25 -30 25 -38 0 -39 94 -88 154 -80
65 9 126 85 120 150 -9 110 -121 231 -245 267 -63 18 -198 25 -284 14z"/>
</g>
</svg>
